<mxfile host="app.diagrams.net" modified="2023-09-21T09:28:32.033Z" agent="Mozilla/5.0 (Windows NT 10.0; Win64; x64) AppleWebKit/537.36 (KHTML, like Gecko) Chrome/117.0.0.0 Safari/537.36" version="21.8.0" etag="uJenHu--ZWn47xRC4igm" type="github">
  <diagram name="Page-1" id="wZ9Sc2QvgZSFA3Iy8V5Y">
    <mxGraphModel>
      <root>
        <mxCell id="0" />
        <mxCell id="1" parent="0" />
      </root>
    </mxGraphModel>
  </diagram>
</mxfile>
